M48
INCH
T01C0.0200
T02C0.0300
T03C0.0250
T04C0.0700
T05C0.0400
T06C0.1100
%
T01
X+016500Y+027000
X+023250Y+027250
X+021500Y+030750
X+004000Y+012500
X+015500Y+011750
X+006250Y+026000
X+018500Y+021000
X+019000Y+018750
X+007250Y+004250
X+006000Y+011750
X+006000Y+012750
X+007000Y+012750
T02
X+010000Y+029250
X+011000Y+029250
X+010000Y+023250
X+009000Y+029250
X+009000Y+023250
X+008000Y+023250
X+011000Y+023250
X+007000Y+023250
X+007000Y+029250
X+008000Y+029250
X+016500Y+029250
X+017500Y+029250
X+016500Y+023250
X+015500Y+029250
X+015500Y+023250
X+014500Y+023250
X+017500Y+023250
X+013500Y+023250
X+013500Y+029250
X+014500Y+029250
X+001750Y+029500
X+001750Y+028500
X+001750Y+027500
X+001750Y+026500
X+001750Y+025500
X+001750Y+024500
X+001750Y+023500
X+001750Y+022500
X+004750Y+022500
X+004750Y+023500
X+004750Y+024500
X+004750Y+025500
X+004750Y+026500
X+004750Y+027500
X+004750Y+028500
X+004750Y+029500
X+019750Y+029750
X+019750Y+028750
X+019750Y+027750
X+019750Y+026750
X+019750Y+025750
X+019750Y+024750
X+019750Y+023750
X+019750Y+022750
X+022750Y+022750
X+022750Y+023750
X+022750Y+024750
X+022750Y+025750
X+022750Y+026750
X+022750Y+027750
X+022750Y+028750
X+022750Y+029750
X+003000Y+015250
X+004000Y+015250
X+005000Y+015250
X+006000Y+015250
X+007000Y+015250
X+008000Y+015250
X+009000Y+015250
X+010000Y+015250
X+010000Y+018250
X+009000Y+018250
X+008000Y+018250
X+007000Y+018250
X+006000Y+018250
X+005000Y+018250
X+004000Y+018250
X+003000Y+018250
X+014500Y+015250
X+015500Y+015250
X+016500Y+015250
X+017500Y+015250
X+018500Y+015250
X+019500Y+015250
X+020500Y+015250
X+021500Y+015250
X+021500Y+018250
X+020500Y+018250
X+019500Y+018250
X+018500Y+018250
X+017500Y+018250
X+016500Y+018250
X+015500Y+018250
X+014500Y+018250
X+003500Y+020250
X+004500Y+020250
X+005500Y+020250
X+006500Y+020250
X+007500Y+020250
X+008500Y+020250
X+009500Y+020250
X+010500Y+020250
X+014500Y+020250
X+015500Y+020250
X+016500Y+020250
X+017500Y+020250
X+018500Y+020250
X+019500Y+020250
X+020500Y+020250
X+021500Y+020250
X+004500Y+008500
X+004500Y+006500
X+003500Y+007500
X+006000Y+009500
X+007000Y+009500
X+007750Y+003500
X+007750Y+002500
X+012750Y+017250
X+012750Y+013250
X+007250Y+008250
X+007250Y+007250
X+007250Y+006250
X+007250Y+005250
X+010250Y+005250
X+010250Y+006250
X+010250Y+007250
X+010250Y+008250
X+010500Y+001500
X+011500Y+001500
X+012500Y+001500
X+013500Y+001500
X+014500Y+001500
X+015500Y+001500
X+016500Y+001500
X+016500Y+004500
X+015500Y+004500
X+014500Y+004500
X+013500Y+004500
X+012500Y+004500
X+011500Y+004500
X+010500Y+004500
X+012000Y+006250
X+013000Y+006250
X+014000Y+006250
X+015000Y+006250
X+016000Y+006250
X+017000Y+006250
X+018000Y+006250
X+018000Y+009250
X+017000Y+009250
X+016000Y+009250
X+015000Y+009250
X+014000Y+009250
X+013000Y+009250
X+012000Y+009250
X+021250Y+009500
X+021250Y+007500
X+020250Y+008500
X+003000Y+011000
X+004000Y+011000
X+005000Y+011000
X+006000Y+011000
X+007000Y+011000
X+008000Y+011000
X+009000Y+011000
X+010000Y+011000
X+010000Y+014000
X+009000Y+014000
X+008000Y+014000
X+007000Y+014000
X+006000Y+014000
X+005000Y+014000
X+004000Y+014000
X+003000Y+014000
X+014500Y+011000
X+015500Y+011000
X+016500Y+011000
X+017500Y+011000
X+018500Y+011000
X+019500Y+011000
X+020500Y+011000
X+021500Y+011000
X+021500Y+014000
X+020500Y+014000
X+019500Y+014000
X+018500Y+014000
X+017500Y+014000
X+016500Y+014000
X+015500Y+014000
X+014500Y+014000
X+012500Y+011750
X+012500Y+010750
X+002810Y+013250
X+002810Y+017250
T03
X+002500Y+020250
X+013500Y+020250
T04
X+003690Y+002750
X+005250Y+002750
T05
X+021250Y+003250
X+021250Y+001750
X+018750Y+001750
X+018750Y+003250
X+019250Y+005250
X+020250Y+005250
X+021250Y+005250
T06
X+000984Y+030905
X+023425Y+030905
X+000984Y+001181
X+023425Y+001181
M30
