M48
INCH
T01C0.0300
T02C0.0400
T03C0.1100
%
T01
X-002092Y-001133
X-001092Y-001133
X-000092Y-001133
X+000907Y-001133
X+000907Y+001866
X-000092Y+001866
X-001092Y+001866
X-002092Y+001866
X-002542Y-001983
X+001457Y-001983
X+002907Y-001833
X+002907Y-002833
X-002892Y+002866
X-002092Y+002866
X-001292Y+002866
X-003192Y-002883
X+000807Y-002883
X-003592Y-001883
X-003592Y+001116
X+001282Y+004291
X-002717Y+004291
X-001342Y-003883
X+002407Y+002866
X+001657Y-003883
X+002307Y+004766
X-000092Y+002866
X+000907Y+002866
T02
X+002407Y+001366
X+002407Y+000366
X+002407Y-000633
T03
X+003707Y+004716
X-003742Y-003883
X+003707Y-003883
X-003742Y+004666
M30
