M48
INCH
T01C0.0300
T02C0.0400
T03C0.0990
%
T01
X-010500Y+003100
X-010500Y+002100
X-010500Y+001100
X-010500Y+000100
X-010500Y-000900
X-010500Y-001900
X-010500Y-002900
X-010500Y-003900
X-010500Y-004900
X-010500Y-005900
X-010500Y-006900
X-010500Y-007900
X-010500Y-008900
X-010500Y-009900
X-010500Y-010900
X-010500Y-011900
X-010500Y-012900
X-010500Y-013900
X-010500Y-014900
X-010500Y-015900
X-004500Y-015900
X-004500Y-014900
X-004500Y-013900
X-004500Y-012900
X-004500Y-011900
X-004500Y-010900
X-004500Y-009900
X-004500Y-008900
X-004500Y-007900
X-004500Y-006900
X-004500Y-005900
X-004500Y-004900
X-004500Y-003900
X-004500Y-002900
X-004500Y-001900
X-004500Y-000900
X-004500Y+000100
X-004500Y+001100
X-004500Y+002100
X-004500Y+003100
X-012000Y-013400
X-012000Y-015400
X-015000Y-009900
X-014000Y-009900
X-012500Y-007400
X-012500Y-011400
X-014000Y-015900
X-014000Y-014900
X-014000Y-012400
X-014000Y-013400
X-014500Y+003100
X-014500Y+002100
X-014500Y+001100
X-014500Y+000100
X-014500Y-000900
X-014500Y-001900
X-014500Y-002900
X-014500Y-003900
X-011500Y-003900
X-011500Y-002900
X-011500Y-001900
X-011500Y-000900
X-011500Y+000100
X-011500Y+001100
X-011500Y+002100
X-011500Y+003100
T02
X-019000Y+003600
X-018000Y+003600
X-019000Y-010400
X-018000Y-010400
X-019000Y+001600
X-018000Y+001600
X-019000Y-000400
X-018000Y-000400
X-019000Y-002400
X-018000Y-002400
X-019000Y-004400
X-018000Y-004400
X-019000Y-006400
X-018000Y-006400
X-019000Y-008400
X-018000Y-008400
X-018500Y-015400
X-018500Y-014400
T03
X-004500Y+005500
X-004500Y-017000
X-019650Y-017200
X-019800Y+005550
M30
