  0
SECTION
  2
HEADER
  9
$ACADVER
  1
AC2.10
  0
ENDSEC
  0
SECTION
  2
TABLES
  0
TABLE
  2
LAYER
 70
     8
  0
LAYER
  2
0
 62
     7
 70
0
  6
CONTINUOUS
  0
LAYER
  2
1
 62
     1
 70
0
  6
CONTINUOUS
  0
LAYER
  2
2
 62
     2
 70
0
  6
CONTINUOUS
  0
LAYER
  2
3
 62
     3
 70
0
  6
CONTINUOUS
  0
LAYER
  2
4
 62
     4
 70
0
  6
CONTINUOUS
  0
LAYER
  2
5
 62
     5
 70
0
  6
CONTINUOUS
  0
LAYER
  2
6
 62
     6
 70
0
  6
CONTINUOUS
  0
LAYER
  2
7
 62
     7
 70
0
  6
CONTINUOUS
  0
ENDTAB
  0
TABLE
  2
STYLE
 70
     1
  0
STYLE
 70
     0
  2
STANDARD
  3
TXT
 40
0.00
 41
1.00
 42
1.00
 50
0.00
 71
     0
  0
ENDTAB
  0
ENDSEC
  0
SECTION
  2
BLOCKS
  0
BLOCK
  8
0
  2
EPAD
 70
0
 10
0.0
 20
0.0
  0
POLYLINE
  8
0
 66
1
 70
1
 40
0.5
 41
0.5
  0
VERTEX
  8
0
 10
-0.25
 20
0.0
 42
1.0
  0
VERTEX
  8
0
 10
0.25
 20
0.0
 42
1.0
  0
SEQEND
  8
0
  0
ENDBLK
  8
0
  0
BLOCK
  8
0
  2
RPAD
 70
0
 10
0.0
 20
0.0
  0
TRACE
  8
0
 10
-0.5
 20
-0.5
 11
-0.5
 21
0.5
 12
0.5
 22
-0.5
 13
0.5
 23
0.5
  0
ENDBLK
  8
0
  0
ENDSEC
0
SECTION
2
ENTITIES
0
POLYLINE
8
0
66
1
40
0.040000
41
0.040000
0
VERTEX
8
0
10
-0.107000
20
-0.130000
0
VERTEX
8
0
10
-0.107000
20
-0.241000
0
VERTEX
8
0
10
-0.044000
20
-0.305000
0
VERTEX
8
0
10
0.082000
20
-0.305000
0
SEQEND
8
0
0
POLYLINE
8
0
66
1
40
0.040000
41
0.040000
0
VERTEX
8
0
10
-0.207000
20
0.170000
0
VERTEX
8
0
10
-0.282000
20
0.095000
0
VERTEX
8
0
10
-0.357000
20
0.095000
0
SEQEND
8
0
0
POLYLINE
8
0
66
1
40
0.040000
41
0.040000
0
VERTEX
8
0
10
-0.207000
20
0.270000
0
VERTEX
8
0
10
-0.207000
20
0.358000
0
VERTEX
8
0
10
-0.095000
20
0.358000
0
VERTEX
8
0
10
-0.007000
20
0.270000
0
SEQEND
8
0
0
POLYLINE
8
0
66
1
40
0.060000
41
0.060000
0
VERTEX
8
0
10
0.147000
20
-0.215000
0
VERTEX
8
0
10
0.162000
20
-0.200000
0
VERTEX
8
0
10
0.292000
20
-0.200000
0
SEQEND
8
0
0
POLYLINE
8
0
66
1
40
0.080000
41
0.080000
0
VERTEX
8
0
10
0.242000
20
0.020000
0
VERTEX
8
0
10
-0.052000
20
0.020000
0
VERTEX
8
0
10
-0.107000
20
0.075000
0
VERTEX
8
0
10
-0.107000
20
0.170000
0
SEQEND
8
0
0
POLYLINE
8
0
66
1
40
0.040000
41
0.040000
0
VERTEX
8
0
10
-0.357000
20
-0.205000
0
VERTEX
8
0
10
-0.357000
20
-0.129000
0
VERTEX
8
0
10
-0.301000
20
-0.073000
0
VERTEX
8
0
10
0.235000
20
-0.073000
0
VERTEX
8
0
10
0.242000
20
-0.080000
0
SEQEND
8
0
0
POLYLINE
8
0
66
1
40
0.040000
41
0.040000
0
VERTEX
8
0
10
-0.007000
20
0.170000
0
VERTEX
8
0
10
-0.007000
20
0.133000
0
VERTEX
8
0
10
0.017000
20
0.108000
0
VERTEX
8
0
10
0.126000
20
0.108000
0
VERTEX
8
0
10
0.138000
20
0.120000
0
VERTEX
8
0
10
0.242000
20
0.120000
0
SEQEND
8
0
0
POLYLINE
8
0
66
1
40
0.040000
41
0.040000
0
VERTEX
8
0
10
-0.107000
20
-0.130000
0
VERTEX
8
0
10
-0.107000
20
-0.192000
0
VERTEX
8
0
10
-0.130000
20
-0.215000
0
VERTEX
8
0
10
-0.252000
20
-0.215000
0
SEQEND
8
0
0
POLYLINE
8
0
66
1
40
0.040000
41
0.040000
0
VERTEX
8
0
10
0.092000
20
0.170000
0
VERTEX
8
0
10
0.092000
20
0.270000
0
SEQEND
8
0
0
POLYLINE
8
0
66
1
40
0.040000
41
0.040000
0
VERTEX
8
0
10
-0.207000
20
0.170000
0
VERTEX
8
0
10
-0.207000
20
0.270000
0
SEQEND
8
0
0
POLYLINE
8
0
66
1
40
0.040000
41
0.040000
0
VERTEX
8
0
10
-0.127000
20
0.270000
0
VERTEX
8
0
10
-0.127000
20
0.358000
0
VERTEX
8
0
10
-0.181000
20
0.412000
0
VERTEX
8
0
10
-0.270000
20
0.412000
0
SEQEND
8
0
0
POLYLINE
8
0
66
1
40
0.040000
41
0.040000
0
VERTEX
8
0
10
0.167000
20
-0.405000
0
VERTEX
8
0
10
0.051000
20
-0.405000
0
VERTEX
8
0
10
-0.007000
20
-0.345000
0
VERTEX
8
0
10
-0.007000
20
-0.130000
0
SEQEND
8
0
0
POLYLINE
8
0
66
1
40
0.040000
41
0.040000
0
VERTEX
8
0
10
0.167000
20
-0.405000
0
VERTEX
8
0
10
0.167000
20
-0.332000
0
VERTEX
8
0
10
0.200000
20
-0.300000
0
VERTEX
8
0
10
0.292000
20
-0.300000
0
SEQEND
8
0
0
POLYLINE
8
0
66
1
40
0.012000
41
0.012000
0
VERTEX
8
0
10
0.130000
20
0.412000
0
VERTEX
8
0
10
0.130000
20
0.393000
0
VERTEX
8
0
10
0.165000
20
0.358000
0
VERTEX
8
0
10
0.201000
20
0.358000
0
VERTEX
8
0
10
0.232000
20
0.389000
0
VERTEX
8
0
10
0.232000
20
0.460000
0
SEQEND
8
0
0
POLYLINE
8
0
66
1
40
0.060000
41
0.060000
0
VERTEX
8
0
10
0.092000
20
-0.130000
0
VERTEX
8
0
10
0.092000
20
-0.063000
0
VERTEX
8
0
10
-0.004000
20
0.033000
0
VERTEX
8
0
10
-0.198000
20
0.033000
0
VERTEX
8
0
10
-0.280000
20
0.115000
0
VERTEX
8
0
10
-0.280000
20
0.158000
0
VERTEX
8
0
10
-0.287000
20
0.165000
0
VERTEX
8
0
10
-0.287000
20
0.270000
0
SEQEND
8
0
0
POLYLINE
8
0
66
1
40
0.060000
41
0.060000
0
VERTEX
8
0
10
0.092000
20
-0.130000
0
VERTEX
8
0
10
0.117000
20
-0.155000
0
VERTEX
8
0
10
0.117000
20
-0.180000
0
VERTEX
8
0
10
0.147000
20
-0.210000
0
VERTEX
8
0
10
0.147000
20
-0.215000
0
SEQEND
8
0
0
POLYLINE
8
0
66
1
40
0.080000
41
0.080000
0
VERTEX
8
0
10
0.242000
20
0.020000
0
VERTEX
8
0
10
0.351000
20
0.020000
0
VERTEX
8
0
10
0.351000
20
0.230000
0
VERTEX
8
0
10
0.311000
20
0.270000
0
VERTEX
8
0
10
0.242000
20
0.270000
0
SEQEND
8
0
0
POLYLINE
8
0
66
1
40
0.040000
41
0.040000
0
VERTEX
8
0
10
-0.317000
20
-0.305000
0
VERTEX
8
0
10
-0.232000
20
-0.305000
0
VERTEX
8
0
10
-0.132000
20
-0.405000
0
SEQEND
8
0
0
POLYLINE
8
0
66
1
40
0.040000
41
0.040000
0
VERTEX
8
0
10
-0.317000
20
-0.305000
0
VERTEX
8
0
10
-0.337000
20
-0.285000
0
VERTEX
8
0
10
-0.337000
20
-0.225000
0
VERTEX
8
0
10
-0.357000
20
-0.205000
0
SEQEND
8
0
0
INSERT
8
0
2
RPAD
10
-0.207000
20
-0.130000
41
0.050000
42
0.050000
50
0.000000
0
CIRCLE
8
0
10
-0.207000
20
-0.130000
40
0.030000
0
INSERT
8
0
2
EPAD
10
-0.107000
20
-0.130000
41
0.050000
42
0.050000
0
CIRCLE
8
0
10
-0.107000
20
-0.130000
40
0.030000
0
INSERT
8
0
2
EPAD
10
-0.007000
20
-0.130000
41
0.050000
42
0.050000
0
CIRCLE
8
0
10
-0.007000
20
-0.130000
40
0.030000
0
INSERT
8
0
2
EPAD
10
0.092000
20
-0.130000
41
0.050000
42
0.050000
0
CIRCLE
8
0
10
0.092000
20
-0.130000
40
0.030000
0
INSERT
8
0
2
EPAD
10
0.092000
20
0.170000
41
0.050000
42
0.050000
0
CIRCLE
8
0
10
0.092000
20
0.170000
40
0.030000
0
INSERT
8
0
2
EPAD
10
-0.007000
20
0.170000
41
0.050000
42
0.050000
0
CIRCLE
8
0
10
-0.007000
20
0.170000
40
0.030000
0
INSERT
8
0
2
EPAD
10
-0.107000
20
0.170000
41
0.050000
42
0.050000
0
CIRCLE
8
0
10
-0.107000
20
0.170000
40
0.030000
0
INSERT
8
0
2
EPAD
10
-0.207000
20
0.170000
41
0.050000
42
0.050000
0
CIRCLE
8
0
10
-0.207000
20
0.170000
40
0.030000
0
INSERT
8
0
2
EPAD
10
-0.252000
20
-0.215000
41
0.070000
42
0.070000
0
CIRCLE
8
0
10
-0.252000
20
-0.215000
40
0.025000
0
INSERT
8
0
2
EPAD
10
0.147000
20
-0.215000
41
0.070000
42
0.070000
0
CIRCLE
8
0
10
0.147000
20
-0.215000
40
0.025000
0
INSERT
8
0
2
EPAD
10
0.292000
20
-0.200000
41
0.070000
42
0.070000
0
CIRCLE
8
0
10
0.292000
20
-0.200000
40
0.025000
0
INSERT
8
0
2
EPAD
10
0.292000
20
-0.300000
41
0.070000
42
0.070000
0
CIRCLE
8
0
10
0.292000
20
-0.300000
40
0.025000
0
INSERT
8
0
2
EPAD
10
-0.007000
20
0.270000
41
0.070000
42
0.070000
0
CIRCLE
8
0
10
-0.007000
20
0.270000
40
0.025000
0
INSERT
8
0
2
EPAD
10
0.092000
20
0.270000
41
0.070000
42
0.070000
0
CIRCLE
8
0
10
0.092000
20
0.270000
40
0.025000
0
INSERT
8
0
2
EPAD
10
-0.287000
20
0.270000
41
0.060000
42
0.060000
0
CIRCLE
8
0
10
-0.287000
20
0.270000
40
0.025000
0
INSERT
8
0
2
EPAD
10
-0.207000
20
0.270000
41
0.060000
42
0.060000
0
CIRCLE
8
0
10
-0.207000
20
0.270000
40
0.025000
0
INSERT
8
0
2
EPAD
10
-0.127000
20
0.270000
41
0.060000
42
0.060000
0
CIRCLE
8
0
10
-0.127000
20
0.270000
40
0.025000
0
INSERT
8
0
2
RPAD
10
0.242000
20
0.120000
41
0.080000
42
0.080000
50
270.000000
0
CIRCLE
8
0
10
0.242000
20
0.120000
40
0.025000
0
INSERT
8
0
2
RPAD
10
0.242000
20
0.020000
41
0.080000
42
0.080000
50
270.000000
0
CIRCLE
8
0
10
0.242000
20
0.020000
40
0.025000
0
INSERT
8
0
2
RPAD
10
0.242000
20
-0.080000
41
0.080000
42
0.080000
50
270.000000
0
CIRCLE
8
0
10
0.242000
20
-0.080000
40
0.025000
0
INSERT
8
0
2
EPAD
10
-0.317000
20
-0.305000
41
0.070000
42
0.070000
0
CIRCLE
8
0
10
-0.317000
20
-0.305000
40
0.025000
0
INSERT
8
0
2
EPAD
10
0.082000
20
-0.305000
41
0.070000
42
0.070000
0
CIRCLE
8
0
10
0.082000
20
-0.305000
40
0.025000
0
INSERT
8
0
2
EPAD
10
-0.357000
20
-0.205000
41
0.070000
42
0.070000
0
CIRCLE
8
0
10
-0.357000
20
-0.205000
40
0.025000
0
INSERT
8
0
2
EPAD
10
-0.357000
20
0.095000
41
0.070000
42
0.070000
0
CIRCLE
8
0
10
-0.357000
20
0.095000
40
0.025000
0
INSERT
8
0
2
EPAD
10
0.130000
20
0.412000
41
0.070000
42
0.070000
0
CIRCLE
8
0
10
0.130000
20
0.412000
40
0.025000
0
INSERT
8
0
2
EPAD
10
-0.270000
20
0.412000
41
0.070000
42
0.070000
0
CIRCLE
8
0
10
-0.270000
20
0.412000
40
0.025000
0
INSERT
8
0
2
EPAD
10
-0.132000
20
-0.405000
41
0.080000
42
0.080000
0
CIRCLE
8
0
10
-0.132000
20
-0.405000
40
0.025000
0
INSERT
8
0
2
EPAD
10
0.242000
20
0.270000
41
0.080000
42
0.080000
0
CIRCLE
8
0
10
0.242000
20
0.270000
40
0.025000
0
INSERT
8
0
2
EPAD
10
0.167000
20
-0.405000
41
0.080000
42
0.080000
0
CIRCLE
8
0
10
0.167000
20
-0.405000
40
0.025000
0
INSERT
8
0
2
EPAD
10
0.232000
20
0.460000
41
0.080000
42
0.080000
0
CIRCLE
8
0
10
0.232000
20
0.460000
40
0.025000
0
INSERT
8
0
2
EPAD
10
0.372000
20
0.455000
41
0.120000
42
0.120000
0
CIRCLE
8
0
10
0.372000
20
0.455000
40
0.010000
0
INSERT
8
0
2
EPAD
10
-0.372000
20
-0.405000
41
0.120000
42
0.120000
0
CIRCLE
8
0
10
-0.372000
20
-0.405000
40
0.010000
0
INSERT
8
0
2
EPAD
10
0.372000
20
-0.405000
41
0.120000
42
0.120000
0
CIRCLE
8
0
10
0.372000
20
-0.405000
40
0.010000
0
INSERT
8
0
2
EPAD
10
-0.372000
20
0.450000
41
0.120000
42
0.120000
0
CIRCLE
8
0
10
-0.372000
20
0.450000
40
0.010000
0
POLYLINE
8
0
66
1
40
0.008000
41
0.008000
0
VERTEX
8
0
10
-0.452000
20
-0.535000
0
VERTEX
8
0
10
0.452000
20
-0.535000
0
VERTEX
8
0
10
0.452000
20
0.535000
0
VERTEX
8
0
10
-0.452000
20
0.535000
0
VERTEX
8
0
10
-0.452000
20
-0.535000
0
SEQEND
8
0
0
POLYLINE
8
0
66
1
40
0.008000
41
0.008000
0
VERTEX
8
0
10
-0.257000
20
0.070000
0
VERTEX
8
0
10
-0.257000
20
0.120000
0
VERTEX
8
0
10
0.142000
20
0.120000
0
VERTEX
8
0
10
0.142000
20
-0.080000
0
VERTEX
8
0
10
-0.257000
20
-0.080000
0
VERTEX
8
0
10
-0.257000
20
-0.030000
0
SEQEND
8
0
0
POLYLINE
8
0
66
1
40
0.008000
41
0.008000
0
VERTEX
8
0
10
-0.207000
20
0.020000
0
VERTEX
8
0
10
-0.208000
20
0.030000
0
VERTEX
8
0
10
-0.211000
20
0.040000
0
VERTEX
8
0
10
-0.215000
20
0.048000
0
VERTEX
8
0
10
-0.221000
20
0.056000
0
VERTEX
8
0
10
-0.237000
20
0.066000
0
VERTEX
8
0
10
-0.257000
20
0.070000
0
SEQEND
8
0
0
POLYLINE
8
0
66
1
40
0.008000
41
0.008000
0
VERTEX
8
0
10
-0.207000
20
0.020000
0
VERTEX
8
0
10
-0.208000
20
0.010000
0
VERTEX
8
0
10
-0.211000
20
0.000000
0
VERTEX
8
0
10
-0.215000
20
-0.009000
0
VERTEX
8
0
10
-0.221000
20
-0.016000
0
VERTEX
8
0
10
-0.237000
20
-0.026000
0
VERTEX
8
0
10
-0.247000
20
-0.029000
0
VERTEX
8
0
10
-0.257000
20
-0.030000
0
SEQEND
8
0
0
TEXT
8
12632256
10
-0.252000
20
-0.005000
40
0.048000
41
1.041667
50
90.000000
1
U1
0
POLYLINE
8
0
66
1
40
0.008000
41
0.008000
0
VERTEX
8
0
10
-0.202000
20
-0.215000
0
VERTEX
8
0
10
-0.152000
20
-0.215000
0
SEQEND
8
0
0
POLYLINE
8
0
66
1
40
0.008000
41
0.008000
0
VERTEX
8
0
10
-0.152000
20
-0.240000
0
VERTEX
8
0
10
0.047000
20
-0.240000
0
VERTEX
8
0
10
0.047000
20
-0.190000
0
VERTEX
8
0
10
-0.152000
20
-0.190000
0
VERTEX
8
0
10
-0.152000
20
-0.240000
0
SEQEND
8
0
0
POLYLINE
8
0
66
1
40
0.008000
41
0.008000
0
VERTEX
8
0
10
0.047000
20
-0.215000
0
VERTEX
8
0
10
0.097000
20
-0.215000
0
SEQEND
8
0
0
TEXT
8
12632256
10
-0.042000
20
-0.285000
40
0.048000
41
1.041667
1
R2
0
POLYLINE
8
0
66
1
40
0.008000
41
0.008000
0
VERTEX
8
0
10
0.292000
20
-0.150000
0
VERTEX
8
0
10
0.302000
20
-0.152000
0
VERTEX
8
0
10
0.312000
20
-0.158000
0
VERTEX
8
0
10
0.320000
20
-0.167000
0
VERTEX
8
0
10
0.328000
20
-0.179000
0
VERTEX
8
0
10
0.334000
20
-0.194000
0
VERTEX
8
0
10
0.338000
20
-0.211000
0
VERTEX
8
0
10
0.342000
20
-0.250000
0
SEQEND
8
0
0
POLYLINE
8
0
66
1
40
0.008000
41
0.008000
0
VERTEX
8
0
10
0.292000
20
-0.350000
0
VERTEX
8
0
10
0.302000
20
-0.348000
0
VERTEX
8
0
10
0.312000
20
-0.342000
0
VERTEX
8
0
10
0.320000
20
-0.333000
0
VERTEX
8
0
10
0.328000
20
-0.321000
0
VERTEX
8
0
10
0.334000
20
-0.306000
0
VERTEX
8
0
10
0.338000
20
-0.289000
0
VERTEX
8
0
10
0.342000
20
-0.250000
0
SEQEND
8
0
0
POLYLINE
8
0
66
1
40
0.008000
41
0.008000
0
VERTEX
8
0
10
0.292000
20
-0.150000
0
VERTEX
8
0
10
0.282000
20
-0.152000
0
VERTEX
8
0
10
0.272000
20
-0.158000
0
VERTEX
8
0
10
0.264000
20
-0.167000
0
VERTEX
8
0
10
0.256000
20
-0.179000
0
VERTEX
8
0
10
0.250000
20
-0.194000
0
VERTEX
8
0
10
0.246000
20
-0.211000
0
VERTEX
8
0
10
0.242000
20
-0.250000
0
SEQEND
8
0
0
POLYLINE
8
0
66
1
40
0.008000
41
0.008000
0
VERTEX
8
0
10
0.292000
20
-0.350000
0
VERTEX
8
0
10
0.282000
20
-0.348000
0
VERTEX
8
0
10
0.272000
20
-0.342000
0
VERTEX
8
0
10
0.264000
20
-0.333000
0
VERTEX
8
0
10
0.256000
20
-0.321000
0
VERTEX
8
0
10
0.250000
20
-0.306000
0
VERTEX
8
0
10
0.246000
20
-0.289000
0
VERTEX
8
0
10
0.242000
20
-0.250000
0
SEQEND
8
0
0
TEXT
8
12632256
10
0.400000
20
-0.300000
40
0.048000
41
1.041667
50
90.000000
1
C1
0
POLYLINE
8
0
66
1
40
0.008000
41
0.008000
0
VERTEX
8
0
10
-0.057000
20
0.270000
0
VERTEX
8
0
10
-0.055000
20
0.280000
0
VERTEX
8
0
10
-0.049000
20
0.290000
0
VERTEX
8
0
10
-0.040000
20
0.298000
0
VERTEX
8
0
10
-0.028000
20
0.306000
0
VERTEX
8
0
10
0.003000
20
0.316000
0
VERTEX
8
0
10
0.042000
20
0.320000
0
SEQEND
8
0
0
POLYLINE
8
0
66
1
40
0.008000
41
0.008000
0
VERTEX
8
0
10
0.142000
20
0.270000
0
VERTEX
8
0
10
0.140000
20
0.280000
0
VERTEX
8
0
10
0.134000
20
0.290000
0
VERTEX
8
0
10
0.125000
20
0.298000
0
VERTEX
8
0
10
0.113000
20
0.306000
0
VERTEX
8
0
10
0.098000
20
0.312000
0
VERTEX
8
0
10
0.081000
20
0.316000
0
VERTEX
8
0
10
0.042000
20
0.320000
0
SEQEND
8
0
0
POLYLINE
8
0
66
1
40
0.008000
41
0.008000
0
VERTEX
8
0
10
-0.057000
20
0.270000
0
VERTEX
8
0
10
-0.055000
20
0.260000
0
VERTEX
8
0
10
-0.049000
20
0.250000
0
VERTEX
8
0
10
-0.040000
20
0.242000
0
VERTEX
8
0
10
-0.028000
20
0.234000
0
VERTEX
8
0
10
0.003000
20
0.224000
0
VERTEX
8
0
10
0.042000
20
0.220000
0
SEQEND
8
0
0
POLYLINE
8
0
66
1
40
0.008000
41
0.008000
0
VERTEX
8
0
10
0.142000
20
0.270000
0
VERTEX
8
0
10
0.140000
20
0.260000
0
VERTEX
8
0
10
0.134000
20
0.250000
0
VERTEX
8
0
10
0.125000
20
0.242000
0
VERTEX
8
0
10
0.113000
20
0.234000
0
VERTEX
8
0
10
0.098000
20
0.228000
0
VERTEX
8
0
10
0.081000
20
0.224000
0
VERTEX
8
0
10
0.042000
20
0.220000
0
SEQEND
8
0
0
TEXT
8
12632256
10
-0.007000
20
0.330000
40
0.048000
41
1.041667
1
C2
0
POLYLINE
8
0
66
1
40
0.008000
41
0.008000
0
VERTEX
8
0
10
-0.307000
20
0.205000
0
VERTEX
8
0
10
-0.107000
20
0.205000
0
SEQEND
8
0
0
POLYLINE
8
0
66
1
40
0.008000
41
0.008000
0
VERTEX
8
0
10
-0.337000
20
0.270000
0
VERTEX
8
0
10
-0.335000
20
0.255000
0
VERTEX
8
0
10
-0.330000
20
0.239000
0
VERTEX
8
0
10
-0.307000
20
0.205000
0
SEQEND
8
0
0
POLYLINE
8
0
66
1
40
0.008000
41
0.008000
0
VERTEX
8
0
10
-0.337000
20
0.270000
0
VERTEX
8
0
10
-0.336000
20
0.296000
0
VERTEX
8
0
10
-0.330000
20
0.319000
0
VERTEX
8
0
10
-0.318000
20
0.340000
0
VERTEX
8
0
10
-0.302000
20
0.359000
0
VERTEX
8
0
10
-0.293000
20
0.367000
0
VERTEX
8
0
10
-0.282000
20
0.374000
0
VERTEX
8
0
10
-0.260000
20
0.385000
0
VERTEX
8
0
10
-0.235000
20
0.393000
0
VERTEX
8
0
10
-0.207000
20
0.395000
0
SEQEND
8
0
0
POLYLINE
8
0
66
1
40
0.008000
41
0.008000
0
VERTEX
8
0
10
-0.077000
20
0.270000
0
VERTEX
8
0
10
-0.079000
20
0.255000
0
VERTEX
8
0
10
-0.084000
20
0.239000
0
VERTEX
8
0
10
-0.107000
20
0.205000
0
SEQEND
8
0
0
POLYLINE
8
0
66
1
40
0.008000
41
0.008000
0
VERTEX
8
0
10
-0.077000
20
0.270000
0
VERTEX
8
0
10
-0.078000
20
0.296000
0
VERTEX
8
0
10
-0.084000
20
0.319000
0
VERTEX
8
0
10
-0.096000
20
0.340000
0
VERTEX
8
0
10
-0.112000
20
0.359000
0
VERTEX
8
0
10
-0.121000
20
0.367000
0
VERTEX
8
0
10
-0.132000
20
0.374000
0
VERTEX
8
0
10
-0.154000
20
0.385000
0
VERTEX
8
0
10
-0.179000
20
0.393000
0
VERTEX
8
0
10
-0.207000
20
0.395000
0
SEQEND
8
0
0
TEXT
8
12632256
10
-0.312000
20
0.310000
40
0.048000
41
1.041667
1
Q2
0
POLYLINE
8
0
66
1
40
0.008000
41
0.008000
0
VERTEX
8
0
10
0.192000
20
-0.130000
0
VERTEX
8
0
10
0.292000
20
-0.130000
0
VERTEX
8
0
10
0.292000
20
0.170000
0
VERTEX
8
0
10
0.192000
20
0.170000
0
VERTEX
8
0
10
0.192000
20
-0.130000
0
SEQEND
8
0
0
POLYLINE
8
0
66
1
40
0.008000
41
0.008000
0
VERTEX
8
0
10
0.292000
20
0.170000
0
VERTEX
8
0
10
0.342000
20
0.170000
0
VERTEX
8
0
10
0.342000
20
-0.130000
0
VERTEX
8
0
10
0.292000
20
-0.130000
0
SEQEND
8
0
0
POLYLINE
8
0
66
1
40
0.008000
41
0.008000
0
VERTEX
8
0
10
0.292000
20
0.170000
0
VERTEX
8
0
10
0.342000
20
0.120000
0
SEQEND
8
0
0
POLYLINE
8
0
66
1
40
0.008000
41
0.008000
0
VERTEX
8
0
10
0.292000
20
0.120000
0
VERTEX
8
0
10
0.342000
20
0.070000
0
SEQEND
8
0
0
POLYLINE
8
0
66
1
40
0.008000
41
0.008000
0
VERTEX
8
0
10
0.292000
20
0.070000
0
VERTEX
8
0
10
0.342000
20
0.020000
0
SEQEND
8
0
0
POLYLINE
8
0
66
1
40
0.008000
41
0.008000
0
VERTEX
8
0
10
0.292000
20
0.020000
0
VERTEX
8
0
10
0.342000
20
-0.030000
0
SEQEND
8
0
0
POLYLINE
8
0
66
1
40
0.008000
41
0.008000
0
VERTEX
8
0
10
0.292000
20
-0.030000
0
VERTEX
8
0
10
0.342000
20
-0.080000
0
SEQEND
8
0
0
POLYLINE
8
0
66
1
40
0.008000
41
0.008000
0
VERTEX
8
0
10
0.292000
20
-0.080000
0
VERTEX
8
0
10
0.342000
20
-0.130000
0
SEQEND
8
0
0
TEXT
8
12632256
10
0.400000
20
-0.030000
40
0.048000
41
1.041667
50
90.000000
1
Q1
0
POLYLINE
8
0
66
1
40
0.008000
41
0.008000
0
VERTEX
8
0
10
-0.267000
20
-0.305000
0
VERTEX
8
0
10
-0.217000
20
-0.305000
0
SEQEND
8
0
0
POLYLINE
8
0
66
1
40
0.008000
41
0.008000
0
VERTEX
8
0
10
-0.217000
20
-0.330000
0
VERTEX
8
0
10
-0.017000
20
-0.330000
0
VERTEX
8
0
10
-0.017000
20
-0.280000
0
VERTEX
8
0
10
-0.217000
20
-0.280000
0
VERTEX
8
0
10
-0.217000
20
-0.330000
0
SEQEND
8
0
0
POLYLINE
8
0
66
1
40
0.008000
41
0.008000
0
VERTEX
8
0
10
-0.017000
20
-0.305000
0
VERTEX
8
0
10
0.032000
20
-0.305000
0
SEQEND
8
0
0
TEXT
8
12632256
10
-0.287000
20
-0.385000
40
0.048000
41
1.041667
1
R1
0
POLYLINE
8
0
66
1
40
0.008000
41
0.008000
0
VERTEX
8
0
10
-0.382000
20
-0.075000
0
VERTEX
8
0
10
-0.332000
20
-0.075000
0
SEQEND
8
0
0
POLYLINE
8
0
66
1
40
0.008000
41
0.008000
0
VERTEX
8
0
10
-0.382000
20
-0.075000
0
VERTEX
8
0
10
-0.357000
20
-0.025000
0
SEQEND
8
0
0
POLYLINE
8
0
66
1
40
0.008000
41
0.008000
0
VERTEX
8
0
10
-0.332000
20
-0.075000
0
VERTEX
8
0
10
-0.357000
20
-0.025000
0
SEQEND
8
0
0
POLYLINE
8
0
66
1
40
0.008000
41
0.008000
0
VERTEX
8
0
10
-0.382000
20
-0.025000
0
VERTEX
8
0
10
-0.332000
20
-0.025000
0
SEQEND
8
0
0
POLYLINE
8
0
66
1
40
0.008000
41
0.008000
0
VERTEX
8
0
10
-0.357000
20
-0.155000
0
VERTEX
8
0
10
-0.357000
20
-0.075000
0
SEQEND
8
0
0
POLYLINE
8
0
66
1
40
0.008000
41
0.008000
0
VERTEX
8
0
10
-0.357000
20
-0.025000
0
VERTEX
8
0
10
-0.357000
20
0.045000
0
SEQEND
8
0
0
TEXT
8
12632256
10
-0.372000
20
-0.040000
40
0.048000
41
1.041667
50
90.000000
1
D1
0
POLYLINE
8
0
66
1
40
0.008000
41
0.008000
0
VERTEX
8
0
10
0.080000
20
0.412000
0
VERTEX
8
0
10
0.030000
20
0.412000
0
SEQEND
8
0
0
POLYLINE
8
0
66
1
40
0.008000
41
0.008000
0
VERTEX
8
0
10
-0.170000
20
0.387000
0
VERTEX
8
0
10
0.030000
20
0.387000
0
VERTEX
8
0
10
0.030000
20
0.437000
0
VERTEX
8
0
10
-0.170000
20
0.437000
0
VERTEX
8
0
10
-0.170000
20
0.387000
0
SEQEND
8
0
0
POLYLINE
8
0
66
1
40
0.008000
41
0.008000
0
VERTEX
8
0
10
-0.170000
20
0.412000
0
VERTEX
8
0
10
-0.220000
20
0.412000
0
SEQEND
8
0
0
TEXT
8
12632256
10
-0.125000
20
0.389000
40
0.048000
41
1.041667
1
R3
0
CIRCLE
8
12632256
10
-0.132000
20
-0.405000
40
0.050000
0
CIRCLE
8
12632256
10
-0.132000
20
-0.405000
40
0.025000
0
TEXT
8
12632256
10
-0.077000
20
-0.440000
40
0.048000
41
1.041667
1
J1
0
CIRCLE
8
12632256
10
0.242000
20
0.270000
40
0.050000
0
CIRCLE
8
12632256
10
0.242000
20
0.270000
40
0.025000
0
TEXT
8
12632256
10
0.282000
20
0.240000
40
0.048000
41
1.041667
1
J2
0
CIRCLE
8
12632256
10
0.167000
20
-0.405000
40
0.050000
0
CIRCLE
8
12632256
10
0.167000
20
-0.405000
40
0.025000
0
TEXT
8
12632256
10
0.202000
20
-0.380000
40
0.048000
41
1.041667
1
J3
0
CIRCLE
8
12632256
10
0.232000
20
0.460000
40
0.050000
0
CIRCLE
8
12632256
10
0.232000
20
0.460000
40
0.025000
0
TEXT
8
12632256
10
0.197000
20
0.340000
40
0.048000
41
1.041667
1
J4
0
TEXT
8
12632256
10
-0.348000
20
-0.510000
40
0.048000
41
1.041667
1
proteus-pcb-eg3
0
ENDSEC
0
EOF

